<?xml version="1.0" encoding="utf-8"?>
<svg width="240" height="240" version="1.1" id="Layer_1" xmlns="http://www.w3.org/2000/svg" xmlns:xlink="http://www.w3.org/1999/xlink" x="0px" y="0px"
	 viewBox="14 30 85 75" style="enable-background:new 0 0 74.4 74.4;" xml:space="preserve" preserveAspectRatio="xMinYMid meet">
    <defs>
	    <path id="band" d="M15 10
            V30
            C15 35, 20 35, 20 30
            V10
            C20, 5, 15 5, 15 10
        " stroke="black" fill="black" stroke-width="5"/>
    </defs>
<g transform="translate(40, 5) rotate(40)">
    <use x="5" y="5" href="#band" />
    <rect x="25" y="15" width="15" height="20" stroke="black" fill="none" stroke-width="5" />
    <use x="25" y="5" href="#band" />
    <rect x="45" y="15" width="15" height="20" stroke="black" fill="none" stroke-width="5" />
    <use x="45" y="5" href="#band" />
    <path id="band" d="M38 35
        V80
        C38 85, 47 85, 47 80
        V35
    " stroke="black" fill="none" stroke-width="5"/>
</g>
<g fill="black">
    <path transform="rotate(90) translate(80,-100)"
	    d="M15 10
            V30
            C15 35, 20 35, 20 30
            V10
            C20, 5, 15 5, 15 10
        " stroke="black" fill="black" stroke-width="10"/>
</g>
</svg>
